<svg width="102" height="28" viewBox="0 0 102 28" fill="none" xmlns="http://www.w3.org/2000/svg">
<rect width="28" height="28" rx="8" fill="#0061FF"/>
<path d="M15.6007 15.6008H12.3993H10.8004C9.91707 15.6008 9.20149 14.8852 9.20149 14.0019V12.403C7.43117 12.3993 6 13.8304 6 15.6008C6 17.3711 7.43117 18.8022 9.20149 18.8022H12.403H14.0019C14.8852 18.8022 15.6007 19.5178 15.6007 20.4011V22C17.3673 22 18.8022 20.5688 18.8022 18.7985C18.8022 17.0282 17.3673 15.6008 15.6007 15.6008Z" fill="white"/>
<path d="M18.7985 9.20149H15.597H13.9981C13.1148 9.20149 12.3992 8.48591 12.3992 7.60261V6C10.6326 6 9.19775 7.43117 9.19775 9.20149C9.19775 10.9718 10.6289 12.403 12.3992 12.403H15.6007H17.1996C18.0829 12.403 18.7985 13.1186 18.7985 14.0019V15.6007C20.5651 15.6007 22 14.1696 22 12.3993C22 10.6289 20.5651 9.20149 18.7985 9.20149Z" fill="white"/>
<path d="M39.598 20.18C38.626 20.18 37.684 20.042 36.772 19.766C35.872 19.49 35.158 19.124 34.63 18.668L35.44 16.85C35.956 17.258 36.586 17.594 37.33 17.858C38.086 18.11 38.842 18.236 39.598 18.236C40.534 18.236 41.23 18.086 41.686 17.786C42.154 17.486 42.388 17.09 42.388 16.598C42.388 16.238 42.256 15.944 41.992 15.716C41.74 15.476 41.416 15.29 41.02 15.158C40.624 15.026 40.084 14.876 39.4 14.708C38.44 14.48 37.66 14.252 37.06 14.024C36.472 13.796 35.962 13.442 35.53 12.962C35.11 12.47 34.9 11.81 34.9 10.982C34.9 10.286 35.086 9.656 35.458 9.092C35.842 8.516 36.412 8.06 37.168 7.724C37.936 7.388 38.872 7.22 39.976 7.22C40.744 7.22 41.5 7.316 42.244 7.508C42.988 7.7 43.63 7.976 44.17 8.336L43.432 10.154C42.88 9.83 42.304 9.584 41.704 9.416C41.104 9.248 40.522 9.164 39.958 9.164C39.034 9.164 38.344 9.32 37.888 9.632C37.444 9.944 37.222 10.358 37.222 10.874C37.222 11.234 37.348 11.528 37.6 11.756C37.864 11.984 38.194 12.164 38.59 12.296C38.986 12.428 39.526 12.578 40.21 12.746C41.146 12.962 41.914 13.19 42.514 13.43C43.114 13.658 43.624 14.012 44.044 14.492C44.476 14.972 44.692 15.62 44.692 16.436C44.692 17.132 44.5 17.762 44.116 18.326C43.744 18.89 43.174 19.34 42.406 19.676C41.638 20.012 40.702 20.18 39.598 20.18ZM52.2503 10.28C53.4623 10.28 54.4343 10.634 55.1663 11.342C55.8983 12.05 56.2643 13.1 56.2643 14.492V20H54.0143V14.78C54.0143 13.94 53.8163 13.31 53.4203 12.89C53.0243 12.458 52.4603 12.242 51.7283 12.242C50.9003 12.242 50.2463 12.494 49.7663 12.998C49.2863 13.49 49.0463 14.204 49.0463 15.14V20H46.7963V6.644H49.0463V11.504C49.4183 11.108 49.8743 10.808 50.4143 10.604C50.9663 10.388 51.5783 10.28 52.2503 10.28ZM68.4246 10.388V20H66.2826V18.776C65.9226 19.208 65.4726 19.544 64.9326 19.784C64.3926 20.012 63.8106 20.126 63.1866 20.126C61.9026 20.126 60.8886 19.772 60.1446 19.064C59.4126 18.344 59.0466 17.282 59.0466 15.878V10.388H61.2966V15.572C61.2966 16.436 61.4886 17.084 61.8726 17.516C62.2686 17.936 62.8266 18.146 63.5466 18.146C64.3506 18.146 64.9866 17.9 65.4546 17.408C65.9346 16.904 66.1746 16.184 66.1746 15.248V10.388H68.4246ZM77.1485 19.478C76.8845 19.694 76.5605 19.856 76.1765 19.964C75.8045 20.072 75.4085 20.126 74.9885 20.126C73.9325 20.126 73.1165 19.85 72.5405 19.298C71.9645 18.746 71.6765 17.942 71.6765 16.886V12.26H70.0925V10.46H71.6765V8.264H73.9265V10.46H76.5005V12.26H73.9265V16.832C73.9265 17.3 74.0405 17.66 74.2685 17.912C74.4965 18.152 74.8265 18.272 75.2585 18.272C75.7625 18.272 76.1825 18.14 76.5185 17.876L77.1485 19.478ZM84.5489 19.478C84.2849 19.694 83.9609 19.856 83.5769 19.964C83.2049 20.072 82.8089 20.126 82.3889 20.126C81.3329 20.126 80.5169 19.85 79.9409 19.298C79.3649 18.746 79.0769 17.942 79.0769 16.886V12.26H77.4929V10.46H79.0769V8.264H81.3269V10.46H83.9009V12.26H81.3269V16.832C81.3269 17.3 81.4409 17.66 81.6689 17.912C81.8969 18.152 82.2269 18.272 82.6589 18.272C83.1629 18.272 83.5829 18.14 83.9189 17.876L84.5489 19.478ZM86.3998 6.644H88.6498V20H86.3998V6.644ZM100.639 15.248C100.639 15.404 100.627 15.626 100.603 15.914H93.061C93.193 16.622 93.535 17.186 94.087 17.606C94.651 18.014 95.347 18.218 96.175 18.218C97.231 18.218 98.101 17.87 98.785 17.174L99.991 18.56C99.559 19.076 99.013 19.466 98.353 19.73C97.693 19.994 96.949 20.126 96.121 20.126C95.065 20.126 94.135 19.916 93.331 19.496C92.527 19.076 91.903 18.494 91.459 17.75C91.027 16.994 90.811 16.142 90.811 15.194C90.811 14.258 91.021 13.418 91.441 12.674C91.873 11.918 92.467 11.33 93.223 10.91C93.979 10.49 94.831 10.28 95.779 10.28C96.715 10.28 97.549 10.49 98.281 10.91C99.025 11.318 99.601 11.9 100.009 12.656C100.429 13.4 100.639 14.264 100.639 15.248ZM95.779 12.08C95.059 12.08 94.447 12.296 93.943 12.728C93.451 13.148 93.151 13.712 93.043 14.42H98.497C98.401 13.724 98.107 13.16 97.615 12.728C97.123 12.296 96.511 12.08 95.779 12.08Z" fill="#0061FF"/>
</svg>