<?xml version="1.0" encoding="utf-8"?>
<!-- Generator: Adobe Illustrator 19.0.0, SVG Export Plug-In . SVG Version: 6.00 Build 0)  -->
<svg version="1.1" id="Calque_1" xmlns="http://www.w3.org/2000/svg" xmlns:xlink="http://www.w3.org/1999/xlink" x="0px" y="0px"
	 viewBox="0 0 190.6 193.8" style="enable-background:new 0 0 190.6 193.8;" xml:space="preserve">
<style type="text/css">
	.st0{fill:#FFFFFF;}
</style>
<g id="XMLID_3303_">
	<path id="XMLID_3318_" class="st0" d="M66.1,189.4c9.1,2.9,18.9,4.4,28.9,4.4c7.1,0,14-0.8,20.6-2.2c-9.1-3.2-19.2-6.6-30.6-10.1
		C78.4,184.5,72.1,187.2,66.1,189.4z"/>
	<path id="XMLID_3317_" class="st0" d="M75.8,178.4c-18.4-6.2-34-9.7-46.9-10.7c8.2,7.6,17.7,13.9,28.1,18.4
		C62.9,184,69.1,181.4,75.8,178.4z"/>
	<path id="XMLID_3316_" class="st0" d="M53.6,148l10.8-19.1L45,130.4c-4.6,0.1-10.8-0.6-18.6-1.9c-7.8-1.4-14.2-3.6-19.2-6.7
		C4.4,120.1,2,118.1,0,116c2.3,11.6,6.7,22.4,12.8,32.1c5.6-1.5,12-2.2,19.5-2.2C38,145.9,45.1,146.6,53.6,148z"/>
	<path id="XMLID_3315_" class="st0" d="M18.1,64.7L18,63.1c0-8.2,3.7-17.7,11-28.4c4.8-7,12.2-15.1,22.2-24.2
		C25.9,23.3,7.1,46.9,0.6,75.2c0,0,0,0,0,0C4.1,71.3,10,67.8,18.1,64.7z"/>
	<path id="XMLID_3314_" class="st0" d="M133.2,7.8C121.5,2.8,108.6,0,95,0c-3.4,0-6.7,0.2-10,0.5l44,14.7L133.2,7.8z"/>
	<path id="XMLID_3313_" class="st0" d="M110.1,60.7l23-1.5c6.9-0.3,15,0.7,24.1,2.9c9.2,2.2,17.1,5.6,23.7,10.3
		c3.7,2.6,6.9,5.5,9.7,8.6c-5-30.7-24.5-56.4-51.1-70.2c-0.1,0.3-0.3,0.5-0.4,0.8L110.1,60.7z"/>
	<path id="XMLID_3312_" class="st0" d="M89.1,85.5c-11.5,1.6-22.7,2.5-33.5,2.5c-12,0-20.6-1.4-25.6-4.3c-5-2.8-8.8-7.3-11.3-13.3
		c-6.4,4.1-9.6,9.1-9.6,15.1c0,5.5,2.5,10,7.4,13.6c6.6,4.6,17.8,6.9,33.6,6.9c7.5,0,16.9-0.7,28.4-2L89.1,85.5z"/>
	<path id="XMLID_3311_" class="st0" d="M172.3,150.1c6.3-8.3,9.5-17.5,9.5-27.5c0-6.6-2-13-5.9-19.3c-4-6.3-10-11.4-18.2-15.2
		c-8.2-3.8-17.6-5.6-28.3-5.6c-8.6,0-19.6,0.8-33.1,2.5l-10.6,18.5c21.1-2.1,35.8-3.1,44.1-3.1c11.2,0,19.8,2.6,25.8,7.7
		c5.9,5.1,8.9,11.2,8.9,18.3c0,6.2-2.9,12.2-8.7,18.1c-5.8,5.9-18.3,13.2-37.4,21.9l27,7.1C157,166.2,166,158.5,172.3,150.1z"/>
	<path id="XMLID_3310_" class="st0" d="M140.4,135.3c0-2.8-1.3-5.4-3.8-7.7c-2.5-2.3-5.7-3.5-9.6-3.5c-4.7,0-10.6,0.4-17.5,1.2
		c-19.3,2.1-32,3.1-38.1,3.1l-11.9,20.8c8.4,1.8,15.2,3.5,20.4,5.1c5.3,1.6,14.7,4.7,28.2,9.4C129.7,153.9,140.4,144.4,140.4,135.3z
		"/>
	<path id="XMLID_3309_" class="st0" d="M42.5,57.9c4.5,4,11.2,6,20.3,6c5.9,0,19.3-0.9,40.1-2.7L117,36.5
		c-13.9-6.9-24.7-11.5-32.5-13.9c-7.8-2.3-14.6-3.5-20.6-3.5c-8.3,0-15.1,2.3-20.3,7c-5.2,4.7-7.8,10.2-7.8,16.5
		C35.8,48.8,38,53.9,42.5,57.9z"/>
	<path id="XMLID_3304_" class="st0" d="M43.6,26.1c5.2-4.7,12-7,20.3-7c5.9,0,12.8,1.2,20.6,3.5c7.8,2.3,18.6,7,32.5,13.9
		l-14.1,24.8c-20.8,1.8-34.2,2.7-40.1,2.7c-9,0-15.8-2-20.3-6c-4.5-4-6.7-9.1-6.7-15.3C35.8,36.3,38.4,30.8,43.6,26.1z M50.2,106
		c-15.9,0-27.1-2.3-33.6-6.9c-5-3.5-7.4-8.1-7.4-13.6c0-6,3.2-11.1,9.6-15.1c2.5,6,6.2,10.5,11.3,13.3c5,2.8,13.6,4.3,25.6,4.3
		c10.8,0,22-0.8,33.5-2.5L78.6,104C67.1,105.3,57.6,106,50.2,106z M80.1,154.3c-5.3-1.6-12.1-3.3-20.4-5.1l11.9-20.8
		c6.1,0,18.8-1,38.1-3.1c6.9-0.8,12.8-1.2,17.5-1.2c3.9,0,7,1.2,9.6,3.5c2.5,2.3,3.8,4.9,3.8,7.7c0,9.1-10.7,18.6-32.1,28.4
		C94.7,158.9,85.4,155.8,80.1,154.3z M118.4,166.3c19.1-8.7,31.6-16,37.4-21.9c5.8-5.9,8.7-11.9,8.7-18.1c0-7.1-3-13.2-8.9-18.3
		c-5.9-5.1-14.5-7.7-25.8-7.7c-8.2,0-22.9,1-44.1,3.1l10.6-18.5c13.4-1.6,24.4-2.5,33.1-2.5c10.7,0,20.1,1.9,28.3,5.6
		c8.2,3.8,14.2,8.8,18.2,15.2c4,6.3,5.9,12.8,5.9,19.3c0,10-3.2,19.2-9.5,27.5c-6.3,8.3-15.3,16.1-26.9,23.3L118.4,166.3z"/>
</g>
</svg>
