<svg width="20" height="20" viewBox="0 0 20 20" fill="none" xmlns="http://www.w3.org/2000/svg">
<path d="M10 6C11.0609 6 12.0783 6.42143 12.8285 7.17157C13.5786 7.92172 14 8.93913 14 10C14 11.0609 13.5786 12.0783 12.8285 12.8284C12.0783 13.5786 11.0609 14 10 14C8.93916 14 7.92174 13.5786 7.1716 12.8284C6.42145 12.0783 6.00002 11.0609 6.00002 10C6.00002 8.93913 6.42145 7.92172 7.1716 7.17157C7.92174 6.42143 8.93916 6 10 6ZM10 8C9.46959 8 8.96088 8.21071 8.58581 8.58579C8.21074 8.96086 8.00002 9.46957 8.00002 10C8.00002 10.5304 8.21074 11.0391 8.58581 11.4142C8.96088 11.7893 9.46959 12 10 12C10.5305 12 11.0392 11.7893 11.4142 11.4142C11.7893 11.0391 12 10.5304 12 10C12 9.46957 11.7893 8.96086 11.4142 8.58579C11.0392 8.21071 10.5305 8 10 8ZM8.00002 20C7.75002 20 7.54002 19.82 7.50002 19.58L7.13002 16.93C6.50002 16.68 5.96002 16.34 5.44002 15.94L2.95002 16.95C2.73002 17.03 2.46002 16.95 2.34002 16.73L0.340022 13.27C0.210022 13.05 0.270023 12.78 0.460023 12.63L2.57002 10.97L2.50002 10L2.57002 9L0.460023 7.37C0.270023 7.22 0.210022 6.95 0.340022 6.73L2.34002 3.27C2.46002 3.05 2.73002 2.96 2.95002 3.05L5.44002 4.05C5.96002 3.66 6.50002 3.32 7.13002 3.07L7.50002 0.42C7.54002 0.18 7.75002 0 8.00002 0H12C12.25 0 12.46 0.18 12.5 0.42L12.87 3.07C13.5 3.32 14.04 3.66 14.56 4.05L17.05 3.05C17.27 2.96 17.54 3.05 17.66 3.27L19.66 6.73C19.79 6.95 19.73 7.22 19.54 7.37L17.43 9L17.5 10L17.43 11L19.54 12.63C19.73 12.78 19.79 13.05 19.66 13.27L17.66 16.73C17.54 16.95 17.27 17.04 17.05 16.95L14.56 15.95C14.04 16.34 13.5 16.68 12.87 16.93L12.5 19.58C12.46 19.82 12.25 20 12 20H8.00002ZM9.25002 2L8.88002 4.61C7.68002 4.86 6.62002 5.5 5.85002 6.39L3.44002 5.35L2.69002 6.65L4.80002 8.2C4.40002 9.37 4.40002 10.64 4.80002 11.8L2.68002 13.36L3.43002 14.66L5.86002 13.62C6.63002 14.5 7.68002 15.14 8.87002 15.38L9.24002 18H10.76L11.13 15.39C12.32 15.14 13.37 14.5 14.14 13.62L16.57 14.66L17.32 13.36L15.2 11.81C15.6 10.64 15.6 9.37 15.2 8.2L17.31 6.65L16.56 5.35L14.15 6.39C13.38 5.5 12.32 4.86 11.12 4.62L10.75 2H9.25002Z" fill="#325288" fill-opacity="0.25"/>
</svg>
