<svg width="12" height="12" viewBox="0 0 12 12" fill="none" xmlns="http://www.w3.org/2000/svg">
<path d="M7.33333 -3.05176e-05V1.3333H9.72667L3.17333 7.88664L4.11333 8.82664L10.6667 2.2733V4.66664H12V-3.05176e-05H7.33333ZM10.6667 10.6666H1.33333V1.3333H6V-3.05176e-05H1.33333C0.593333 -3.05176e-05 0 0.59997 0 1.3333V10.6666C0 11.0203 0.140476 11.3594 0.390524 11.6094C0.640573 11.8595 0.979711 12 1.33333 12H10.6667C11.0203 12 11.3594 11.8595 11.6095 11.6094C11.8595 11.3594 12 11.0203 12 10.6666V5.99997H10.6667V10.6666Z" fill="#0061FF" fill-opacity="0.25"/>
</svg>
