<?xml version="1.0" encoding="utf-8"?>
<!-- Generator: Adobe Illustrator 23.0.1, SVG Export Plug-In . SVG Version: 6.00 Build 0)  -->
<svg version="1.1" id="Calque_1" xmlns="http://www.w3.org/2000/svg" xmlns:xlink="http://www.w3.org/1999/xlink" x="0px" y="0px"
	 viewBox="0 0 7.96 7.96" style="enable-background:new 0 0 7.96 7.96;" xml:space="preserve">
<style type="text/css">
	.st0{fill:#C3C3C3;}
</style>
<path class="st0" d="M3.35,6.7c-0.86,0-1.72-0.33-2.37-0.98h0c0,0,0,0,0,0C0.35,5.09,0,4.24,0,3.35c0-0.9,0.35-1.74,0.98-2.37
	c1.3-1.31,3.43-1.31,4.74,0C6.35,1.61,6.7,2.45,6.7,3.35S6.35,5.09,5.72,5.72C5.07,6.37,4.21,6.7,3.35,6.7z M3.35,0.75
	C2.68,0.75,2.02,1,1.51,1.51C1.02,2,0.75,2.65,0.75,3.35c0,0.69,0.27,1.35,0.76,1.84h0c1.01,1.02,2.66,1.01,3.68,0
	C5.68,4.7,5.95,4.04,5.95,3.35c0-0.69-0.27-1.35-0.76-1.84C4.68,1,4.02,0.75,3.35,0.75z"/>
<polygon class="st0" points="7.43,7.96 5.19,5.72 5.72,5.19 7.96,7.43 "/>
</svg>
