<?xml version="1.0" encoding="utf-8"?>
<!-- Generator: Adobe Illustrator 22.1.0, SVG Export Plug-In . SVG Version: 6.00 Build 0)  -->
<svg version="1.1" id="Calque_1" xmlns="http://www.w3.org/2000/svg" xmlns:xlink="http://www.w3.org/1999/xlink" x="0px" y="0px"
	 viewBox="0 0 67.8 53.3" style="enable-background:new 0 0 67.8 53.3;" xml:space="preserve">
<style type="text/css">
	.st0{fill:#E72460;}
</style>
<g>
	<path class="st0" d="M67.8,37.7L52,35.2l-7.3-5.1c-5.5-0.9-13.8-2.1-14.7-2c-0.5,0.1-3.9,1.5-6.8,2.8c-4.5,2-9.6,4.2-11.5,4.6
		C8.4,36.2,0.9,37,0.6,37L0,37.1v-2.3l0.4-0.1c8.3-2.5,9.6-8.3,9.7-8.5C10.7,11.5,22.8,0,37.6,0c15.2,0,27.6,12.4,27.6,27.6
		c0,0.4,0,0.9,0,1.3l0.9,0.2v5.7h1.7V37.7z M52.5,34.3l14.3,2.3v-0.8h-1.7v-5.9l-0.5-0.1l-0.5,0l0-0.5c0-0.6,0.1-1.1,0.1-1.7
		C64.2,12.9,52.3,1,37.6,1C23.4,1,11.7,12.1,11,26.3c-0.1,0.3-1.4,6.6-10,9.3V36c1.8-0.2,7.7-0.9,10.4-1.4c1.8-0.4,7.1-2.7,11.3-4.5
		c4.1-1.8,6.5-2.8,7.1-2.9c1.4-0.2,13.7,1.8,15.1,2l0.2,0.1L52.5,34.3z"/>
	<path class="st0" d="M64.6,29.8l-10-1.7L46,25.9l-15.4-2l-14.5,0v-0.5c0-1,0-9.6,1.7-11.8c1.6-2.2,11.8-9,20.6-9
		c8.9,0,22.6,7.6,25.2,16.2l-1,0.3C60.2,10.8,47.1,3.5,38.5,3.5c-8.5,0-18.4,6.8-19.8,8.6c-1.2,1.5-1.5,7.9-1.5,10.7h13.5l15.5,2.1
		l8.6,2.2l9.9,1.7L64.6,29.8z"/>
	<path class="st0" d="M44.6,24.1l-10.8-1.4l0.4-3L45,21.1L44.6,24.1z M35,21.8l8.8,1.1l0.1-1l-8.8-1.1L35,21.8z"/>
	<path class="st0" d="M51.2,53.3l-0.8-0.6l0.2-0.2l-0.6,0.2l-0.3-1l1-0.3l0.2,0.7l0.1-0.2l0.8,0.6L51.2,53.3z M52.3,51.6l-0.8-0.6
		l0.6-0.8l0.8,0.6L52.3,51.6z M49.3,50.7l-0.3-1l1-0.3l0.3,1L49.3,50.7z M53.4,50l-0.8-0.6l0.6-0.8l0.8,0.6L53.4,50z M48.8,48.8
		l-0.3-1l1-0.3l0.3,1L48.8,48.8z M54.5,48.3l-0.8-0.6l0.1-0.2l-0.1-0.4l1-0.2l0.2,0.8L54.5,48.3z M48.2,46.9l-0.3-1l1-0.3l0.3,1
		L48.2,46.9z M53.5,46.2l-0.2-1l1-0.2l0.2,1L53.5,46.2z M47.6,45l-0.3-1l1-0.3l0.3,1L47.6,45z M53.1,44.3l-0.2-1l1-0.2l0.2,1
		L53.1,44.3z M47,43.1l-0.3-1l1-0.3l0.3,1L47,43.1z M52.6,42.3l-0.2-1l1-0.2l0.2,1L52.6,42.3z M46.5,41.2l-0.3-1l1-0.3l0.3,1
		L46.5,41.2z M52.2,40.4L52,39.7l0.8-0.5l0.5,0.8l-0.2,0.1l0,0l0,0l-0.3,0.2l-0.1-0.1L52.2,40.4z M54.2,39.5l-0.5-0.8l0.8-0.5
		l0.5,0.8L54.2,39.5z M45.9,39.2l-0.3-1l1-0.3l0.3,1L45.9,39.2z M13.3,39v-1.7h1v0.9H14l0.2,0.4L13.3,39z M55.9,38.4l-0.5-0.8
		l0.2-0.1l0-0.3l1,0.1L56.5,38L55.9,38.4z M15.1,38.2l-0.5-0.9l0.9-0.5l0.5,0.9L15.1,38.2z M66.4,37.5l-1-0.2l0.2-1l1,0.2L66.4,37.5
		z M45.3,37.3l-0.3-1l1-0.3l0.3,1L45.3,37.3z M16.9,37.2l-0.5-0.9l0.9-0.5l0.5,0.9L16.9,37.2z M64.4,37.2l-1-0.2l0.2-1l1,0.2
		L64.4,37.2z M67.8,37h-1v-1h1V37z M1.3,37l-0.2-1l1-0.1l0.1,1L1.3,37z M62.4,36.9l-1-0.2l0.2-1l1,0.2L62.4,36.9z M3.2,36.7l-0.1-1
		l1-0.1l0.1,1L3.2,36.7z M60.5,36.6l-1-0.2l0.2-1l1,0.2L60.5,36.6z M5.2,36.5l-0.1-1l1-0.1l0.1,1L5.2,36.5z M14.3,36.4h-1v-1h1V36.4
		z M18.6,36.3l-0.5-0.9l0.9-0.5l0.5,0.9L18.6,36.3z M56.8,36.3l-1-0.1l0.2-1.3l0.7,0.1l-0.1,0.5l0.3,0L56.8,36.3z M58.5,36.3l-1-0.2
		l0.2-1l1,0.2L58.5,36.3z M7.2,36.2l-0.1-1l1-0.1l0.1,1L7.2,36.2z M1,36.2H0v-1.3l0.3-0.1l0.3,0.9l-0.1-0.5h0l0,0l0,0H1V36.2z
		 M9.2,35.9L9,35c0.3-0.1,0.7-0.1,1-0.2l0.2,1C9.9,35.8,9.5,35.9,9.2,35.9z M67.3,35.8h-1v-1h1V35.8z M11.2,35.6l-0.2-1
		c0.1,0,0.3-0.1,0.4-0.1c0.1,0,0.3-0.1,0.5-0.1l0.3,1c-0.2,0.1-0.4,0.1-0.6,0.1C11.5,35.5,11.3,35.6,11.2,35.6z M20.4,35.4L20,34.5
		l0.9-0.5l0.5,0.9L20.4,35.4z M44.7,35.4l-0.3-1l1-0.3l0.3,1L44.7,35.4z M1.6,35.4l-0.3-0.9c0.3-0.1,0.6-0.2,0.9-0.3L2.6,35
		C2.3,35.1,2,35.2,1.6,35.4z M13.2,35l-0.3-0.9c0.3-0.1,0.5-0.2,0.8-0.3l0.7-0.3v0.8h-0.5l0.1,0.4C13.7,34.8,13.4,34.9,13.2,35z
		 M66.1,35h-1v-1h1V35z M3.5,34.6l-0.4-0.9c0.3-0.1,0.6-0.3,0.9-0.4l0.5,0.9C4.2,34.3,3.8,34.4,3.5,34.6z M22.2,34.5l-0.5-0.9
		l0.9-0.5l0.5,0.9L22.2,34.5z M31.8,33.9v-1.5h1v0.9h-0.4l0.1,0.5L31.8,33.9z M26.7,33.6l-0.3-0.9l0.4-0.2l0,0l0.5-0.2l0.4,0.9
		L26.7,33.6z M33.4,33.6l-0.2-1l1-0.2l0.2,1L33.4,33.6z M24,33.6l-0.5-0.9l0.9-0.5l0.5,0.9L24,33.6z M5.3,33.6l-0.5-0.8
		c0.3-0.2,0.5-0.4,0.8-0.5L6.2,33C5.9,33.2,5.6,33.4,5.3,33.6z M44.2,33.5l-0.3-1l1-0.3l0.3,1L44.2,33.5z M35.4,33.3l-0.2-1l1-0.2
		l0.2,1L35.4,33.3z M66.1,33h-1v-1h1V33z M37.4,32.9l-0.2-1l1-0.2l0.2,1L37.4,32.9z M28.6,32.8l-0.4-0.9l0.9-0.4l0.4,0.9L28.6,32.8z
		 M25.8,32.7l-0.5-0.9l0.9-0.5l0.5,0.9L25.8,32.7z M39.3,32.6l-0.2-1l1-0.2l0.2,1L39.3,32.6z M7,32.4l-0.6-0.8
		c0.3-0.2,0.5-0.4,0.7-0.6l0.7,0.7C7.5,31.9,7.3,32.1,7,32.4z M41.3,32.3l-0.2-1l1-0.2l0.2,1L41.3,32.3z M30.4,32L30,31.1l0.9-0.4
		l0.4,0.9L30.4,32z M43.3,31.9l-0.2-1l1.3-0.2l0.2,0.6L44,31.4l0.1,0.3L43.3,31.9z M32.8,31.4h-1v-0.8H32l-0.2-0.4l0.9-0.4V31.4z
		 M66.1,31h-1v-1h1V31z M8.5,30.9l-0.8-0.7C8,30,8.2,29.8,8.3,29.5l0.8,0.6C8.9,30.4,8.7,30.7,8.5,30.9z M65,29.9l-0.4-0.1l-0.5,0
		l0-0.5c0-0.2,0-0.4,0-0.5l1,0c0,0,0,0.1,0,0.1l0,0l0,0.1c0,0.1,0,0.2,0,0.3l0,0L65,29.9z M9.7,29.3l-0.8-0.5
		c0.2-0.3,0.3-0.6,0.5-0.8l0.9,0.5C10.1,28.6,9.9,28.9,9.7,29.3z M65.2,27.8h-1v-0.2c0-0.3,0-0.5,0-0.8l1,0c0,0.3,0,0.6,0,0.9V27.8z
		 M10.7,27.4L9.8,27c0.2-0.5,0.3-0.9,0.3-0.9l1,0.1l-0.5,0l0.5,0.1C11,26.4,10.9,26.8,10.7,27.4z M64.1,25.8c0-0.3,0-0.7-0.1-1
		l1-0.1c0,0.3,0.1,0.7,0.1,1L64.1,25.8z M11.1,25.3l-1-0.1c0-0.3,0.1-0.7,0.1-1l1,0.1C11.1,24.7,11.1,25,11.1,25.3z M63.9,23.8
		c0-0.3-0.1-0.6-0.2-1l1-0.2c0.1,0.3,0.1,0.7,0.2,1L63.9,23.8z M11.3,23.4l-1-0.2c0.1-0.3,0.1-0.7,0.2-1l1,0.2
		C11.4,22.7,11.4,23,11.3,23.4z M63.6,21.9c-0.1-0.3-0.1-0.6-0.2-1l1-0.2c0.1,0.3,0.2,0.7,0.2,1L63.6,21.9z M11.7,21.4l-1-0.2
		c0.1-0.3,0.2-0.7,0.3-1l1,0.3C11.9,20.8,11.8,21.1,11.7,21.4z M63.1,20c-0.1-0.3-0.2-0.6-0.3-0.9l0.9-0.3c0.1,0.3,0.2,0.6,0.3,1
		L63.1,20z M12.2,19.5l-1-0.3c0.1-0.3,0.2-0.6,0.3-1l0.9,0.3C12.4,18.9,12.3,19.2,12.2,19.5z M62.5,18.2c-0.1-0.3-0.2-0.6-0.4-0.9
		l0.9-0.4c0.1,0.3,0.3,0.6,0.4,0.9L62.5,18.2z M12.9,17.7L12,17.3c0.1-0.3,0.3-0.6,0.4-0.9l0.9,0.4C13.1,17.1,13,17.4,12.9,17.7z
		 M61.7,16.3c-0.1-0.3-0.3-0.6-0.4-0.9l0.9-0.5c0.2,0.3,0.3,0.6,0.4,0.9L61.7,16.3z M13.7,15.9l-0.9-0.4c0.1-0.3,0.3-0.6,0.5-0.9
		l0.9,0.5C14,15.3,13.8,15.6,13.7,15.9z M60.8,14.6c-0.2-0.3-0.3-0.6-0.5-0.8l0.9-0.5c0.2,0.3,0.3,0.6,0.5,0.9L60.8,14.6z
		 M14.6,14.2l-0.9-0.5c0.2-0.3,0.3-0.6,0.5-0.9l0.8,0.5C14.9,13.6,14.8,13.9,14.6,14.2z M59.8,12.9c-0.2-0.3-0.4-0.5-0.6-0.8
		l0.8-0.6c0.2,0.3,0.4,0.6,0.6,0.8L59.8,12.9z M15.7,12.5L14.8,12c0.2-0.3,0.4-0.6,0.6-0.8l0.8,0.6C16,12,15.8,12.3,15.7,12.5z
		 M58.6,11.3c-0.2-0.3-0.4-0.5-0.6-0.8l0.8-0.6c0.2,0.3,0.4,0.5,0.6,0.8L58.6,11.3z M16.8,11l-0.8-0.6c0.2-0.3,0.4-0.5,0.7-0.8
		l0.8,0.7C17.2,10.5,17,10.7,16.8,11z M57.4,9.8c-0.2-0.2-0.4-0.5-0.7-0.7l0.7-0.7c0.2,0.2,0.5,0.5,0.7,0.7L57.4,9.8z M18.1,9.5
		l-0.7-0.7c0.2-0.2,0.5-0.5,0.7-0.7l0.7,0.7C18.6,9,18.3,9.2,18.1,9.5z M56,8.4c-0.2-0.2-0.5-0.4-0.7-0.7L56,7
		c0.3,0.2,0.5,0.5,0.7,0.7L56,8.4z M19.5,8.1l-0.7-0.7c0.2-0.2,0.5-0.5,0.8-0.7l0.7,0.8C20,7.7,19.7,7.9,19.5,8.1z M54.5,7.1
		c-0.3-0.2-0.5-0.4-0.8-0.6l0.6-0.8c0.3,0.2,0.5,0.4,0.8,0.6L54.5,7.1z M21,6.8L20.4,6c0.3-0.2,0.5-0.4,0.8-0.6l0.6,0.8
		C21.5,6.4,21.2,6.6,21,6.8z M53,5.9c-0.3-0.2-0.5-0.4-0.8-0.6l0.5-0.8c0.3,0.2,0.6,0.4,0.8,0.6L53,5.9z M22.6,5.6L22,4.8
		c0.3-0.2,0.6-0.4,0.9-0.6l0.5,0.8C23.1,5.3,22.8,5.5,22.6,5.6z M51.3,4.8c-0.3-0.2-0.6-0.3-0.8-0.5L51,3.5c0.3,0.2,0.6,0.3,0.9,0.5
		L51.3,4.8z M24.2,4.6l-0.5-0.9c0.3-0.2,0.6-0.3,0.9-0.5l0.5,0.9C24.8,4.3,24.5,4.4,24.2,4.6z M49.6,3.9c-0.3-0.1-0.6-0.3-0.9-0.4
		l0.4-0.9c0.3,0.1,0.6,0.3,0.9,0.4L49.6,3.9z M26,3.7l-0.4-0.9c0.3-0.1,0.6-0.3,0.9-0.4l0.4,0.9C26.6,3.4,26.3,3.5,26,3.7z
		 M47.9,3.1c-0.3-0.1-0.6-0.2-0.9-0.4l0.4-0.9c0.3,0.1,0.6,0.2,0.9,0.4L47.9,3.1z M27.8,2.9l-0.4-0.9c0.3-0.1,0.6-0.2,1-0.4l0.3,0.9
		C28.4,2.6,28.1,2.8,27.8,2.9z M46,2.4c-0.3-0.1-0.6-0.2-0.9-0.3l0.3-1c0.3,0.1,0.6,0.2,1,0.3L46,2.4z M29.6,2.2l-0.3-1
		c0.3-0.1,0.6-0.2,1-0.3l0.3,1C30.2,2,29.9,2.1,29.6,2.2z M44.1,1.8c-0.3-0.1-0.6-0.2-1-0.2l0.2-1c0.3,0.1,0.7,0.1,1,0.2L44.1,1.8z
		 M31.5,1.7l-0.2-1c0.3-0.1,0.7-0.1,1-0.2l0.2,1C32.1,1.6,31.8,1.6,31.5,1.7z M42.2,1.4c-0.3-0.1-0.6-0.1-1-0.2l0.1-1
		c0.3,0,0.7,0.1,1,0.2L42.2,1.4z M33.4,1.3l-0.2-1c0.3-0.1,0.7-0.1,1-0.1l0.1,1C34.1,1.2,33.8,1.3,33.4,1.3z M40.3,1.1
		c-0.3,0-0.7-0.1-1-0.1l0.1-1c0.3,0,0.7,0,1,0.1L40.3,1.1z M35.4,1.1l-0.1-1c0.3,0,0.7,0,1-0.1l0,1C36,1,35.7,1.1,35.4,1.1z M38.3,1
		c-0.2,0-0.5,0-0.7,0l-0.2,0l0-1l0.3,0c0.3,0,0.5,0,0.8,0L38.3,1z"/>
</g>
</svg>
