<?xml version="1.0" encoding="utf-8"?>
<!-- Generator: Adobe Illustrator 19.0.0, SVG Export Plug-In . SVG Version: 6.00 Build 0)  -->
<svg version="1.1" id="Calque_1" xmlns="http://www.w3.org/2000/svg" xmlns:xlink="http://www.w3.org/1999/xlink" x="0px" y="0px"
	 viewBox="0 0 595.3 841.9" style="enable-background:new 0 0 595.3 841.9;" xml:space="preserve">
<style type="text/css">
	.st0{fill:#7C7C7C;}
</style>
<path id="XMLID_149_" class="st0" d="M327.2,485.6h-9.4c-0.3,0-0.5-0.2-0.5-0.5V318.2c0-0.3,0.2-0.5,0.5-0.5h9.4
	c0.3,0,0.5,0.2,0.5,0.5v166.9C327.7,485.4,327.5,485.6,327.2,485.6z"/>
<path id="XMLID_148_" class="st0" d="M406.5,397v9.4c0,0.3-0.2,0.5-0.5,0.5H239.1c-0.3,0-0.5-0.2-0.5-0.5V397c0-0.3,0.2-0.5,0.5-0.5
	H406C406.2,396.5,406.5,396.7,406.5,397z"/>
</svg>
