<?xml version="1.0" encoding="utf-8"?>
<!-- Generator: Adobe Illustrator 19.0.0, SVG Export Plug-In . SVG Version: 6.00 Build 0)  -->
<svg version="1.1" id="Calque_1" xmlns="http://www.w3.org/2000/svg" xmlns:xlink="http://www.w3.org/1999/xlink" x="0px" y="0px"
	 viewBox="0 0 595.3 841.9" style="enable-background:new 0 0 595.3 841.9;" xml:space="preserve">
<style type="text/css">
	.st0{fill:#BFBEBE;}
</style>
<path id="XMLID_29_" class="st0" d="M327.2,486.3h-9.4c-0.3,0-0.5-0.2-0.5-0.5V318.9c0-0.3,0.2-0.5,0.5-0.5h9.4
	c0.3,0,0.5,0.2,0.5,0.5v166.9C327.7,486.1,327.5,486.3,327.2,486.3z"/>
<path id="XMLID_146_" class="st0" d="M406.5,397.7v9.4c0,0.3-0.2,0.5-0.5,0.5l-166.9,0c-0.3,0-0.5-0.2-0.5-0.5v-9.4
	c0-0.3,0.2-0.5,0.5-0.5H406C406.2,397.2,406.5,397.4,406.5,397.7z"/>
</svg>
