<?xml version="1.0" encoding="utf-8"?>
<!-- Generator: Adobe Illustrator 19.0.0, SVG Export Plug-In . SVG Version: 6.00 Build 0)  -->
<svg version="1.1" id="Calque_1" xmlns="http://www.w3.org/2000/svg" xmlns:xlink="http://www.w3.org/1999/xlink" x="0px" y="0px"
	 viewBox="0 0 279.4 265.5" style="enable-background:new 0 0 279.4 265.5;" xml:space="preserve">
<style type="text/css">
	.st0{fill:#7F7F7F;}
</style>
<path id="XMLID_334_" class="st0" d="M105.9,0l78.2,26.2l5.8-10.2c2.1-3.7,3.6-6,4.5-6.8c0.9-0.9,1.9-1.3,3.1-1.3s2.1,0.4,2.9,1.2
	c0.8,0.8,1.1,1.7,1.1,2.8c0,1.6-1.4,4.9-4.3,9.7l-37.8,64.2l30-2c9-0.4,19.5,0.9,31.5,3.8c12,2.9,22.3,7.4,30.9,13.4
	c8.6,6.1,15.4,13.2,20.3,21.5c4.9,8.3,7.4,17.4,7.4,27.3c0,18.3-7.7,36.2-23,53.8c-15.3,17.6-42.5,36.2-81.7,55.8
	c-13.8-5.1-29.8-10.4-48-16.1c-32.5,14.9-59.3,22.3-80.2,22.3c-14.9,0-26.4-3.3-34.4-9.8C4,249.2,0,241.6,0,233.1
	c0-9.1,4.9-17.5,14.6-25.1c9.7-7.6,24.1-11.4,43.2-11.4c7.5,0,16.8,0.9,27.9,2.8l14.1-24.9l-25.4,2c-6,0.1-14.1-0.7-24.3-2.5
	c-10.2-1.8-18.5-4.7-25.1-8.8c-6.5-4-11.4-9-14.7-14.9c-3.2-5.9-4.9-12.1-4.9-18.6c0-10.3,3.6-19.4,10.9-27.4
	c4.6-5.1,12.3-9.7,22.9-13.7l-0.2-2.1c0-10.7,4.8-23.1,14.3-37C63.1,37.7,80.5,20.5,105.9,0z M114.6,239.1
	c-28.8-9.6-52.3-14.4-70.7-14.4c-9.5,0-17,2.1-22.5,6.2c-3.8,2.8-5.7,6.2-5.7,10.2c0,4.3,1.9,7.7,5.7,10.2c6,4.2,14.7,6.2,26.2,6.2
	C65.1,257.7,87.5,251.5,114.6,239.1z M132,117.8c-15,2.2-29.6,3.2-43.7,3.2c-15.7,0-26.9-1.9-33.5-5.6c-6.6-3.7-11.5-9.5-14.7-17.3
	c-8.3,5.3-12.5,11.9-12.5,19.8c0,7.2,3.2,13.1,9.7,17.7c8.6,6,23.2,9,43.9,9c9.7,0,22.1-0.9,37.1-2.6L132,117.8z M168.3,53.9
	c-18.1-9-32.2-15-42.4-18.1c-10.2-3.1-19.1-4.6-26.8-4.6c-10.8,0-19.7,3.1-26.5,9.2c-6.8,6.1-10.2,13.3-10.2,21.5
	c0,8.1,2.9,14.7,8.8,19.9c5.8,5.2,14.6,7.8,26.4,7.8c7.8,0,25.2-1.1,52.3-3.5L168.3,53.9z M93.5,201c10.9,2.4,19.8,4.6,26.7,6.6
	c6.9,2,19.1,6.1,36.8,12.2c28-12.7,42-25.1,41.9-37c0-3.7-1.6-7.1-4.9-10.1c-3.3-3-7.4-4.5-12.5-4.5c-6.2,0-13.8,0.5-22.9,1.6
	c-25.2,2.7-41.8,4-49.7,4L93.5,201z M127.5,141.3c27.6-2.7,46.8-4.1,57.5-4.1c14.7,0,25.9,3.3,33.6,10c7.7,6.7,11.6,14.6,11.6,23.9
	c0,8.1-3.8,16-11.4,23.6c-7.6,7.6-23.8,17.2-48.8,28.6l35.3,9.3c15.2-9.4,26.9-19.5,35.1-30.4c8.2-10.9,12.3-22.8,12.3-35.9
	c0-8.6-2.6-17-7.7-25.2c-5.2-8.3-13.1-14.9-23.7-19.8c-10.7-4.9-23-7.4-36.9-7.4c-11.2,0-25.6,1.1-43.1,3.2L127.5,141.3z"/>
</svg>
