<?xml version="1.0" encoding="UTF-8"?>
<!-- Generator: Adobe Illustrator 19.0.0, SVG Export Plug-In . SVG Version: 6.00 Build 0)  -->
<svg version="1.1" id="Calque_1" xmlns="http://www.w3.org/2000/svg" xmlns:xlink="http://www.w3.org/1999/xlink" x="0px" y="0px" viewBox="0 0 299 299" style="enable-background:new 0 0 299 299;" xml:space="preserve">
<style type="text/css">
	.st0{fill:#E71F5F;}
	.st1{fill:#FFFFFF;}
</style>
<rect id="XMLID_62_" class="st0" width="299" height="299"/>
<g id="XMLID_4_">
	<path id="XMLID_5_" class="st1" d="M130.1,73.5l44.8,15l3.3-5.8c1.2-2.1,2.1-3.4,2.6-3.9c0.5-0.5,1.1-0.7,1.8-0.7   c0.7,0,1.2,0.2,1.7,0.7c0.4,0.5,0.7,1,0.7,1.6c0,0.9-0.8,2.8-2.5,5.5l-21.6,36.7l17.2-1.1c5.2-0.2,11.2,0.5,18,2.2   c6.9,1.7,12.7,4.2,17.7,7.7c4.9,3.5,8.8,7.6,11.6,12.3c2.8,4.7,4.2,9.9,4.2,15.6c0,10.5-4.4,20.7-13.1,30.8   c-8.8,10.1-24.4,20.7-46.8,31.9c-7.9-2.9-17.1-6-27.5-9.2c-18.6,8.5-33.9,12.8-45.9,12.8c-8.5,0-15.1-1.9-19.7-5.6   c-4.6-3.7-6.9-8.1-6.9-13c0-5.2,2.8-10,8.3-14.3c5.6-4.3,13.8-6.5,24.7-6.5c4.3,0,9.6,0.5,16,1.6l8.1-14.2l-14.5,1.1   c-3.4,0.1-8.1-0.4-13.9-1.4c-5.8-1-10.6-2.7-14.3-5c-3.7-2.3-6.5-5.2-8.4-8.5c-1.9-3.4-2.8-6.9-2.8-10.6c0-5.9,2.1-11.1,6.3-15.7   c2.6-2.9,7-5.5,13.1-7.8l-0.1-1.2c0-6.2,2.7-13.2,8.2-21.2C105.6,95.1,115.6,85.2,130.1,73.5z M135.1,210.4   c-16.5-5.5-30-8.3-40.5-8.2c-5.4,0-9.7,1.2-12.9,3.6c-2.2,1.6-3.3,3.5-3.3,5.9c0,2.4,1.1,4.4,3.3,5.9c3.4,2.4,8.4,3.6,15,3.6   C106.8,221,119.6,217.5,135.1,210.4z M145.1,140.9c-8.6,1.2-17,1.8-25,1.8c-9,0-15.4-1.1-19.2-3.2c-3.8-2.1-6.6-5.4-8.4-9.9   c-4.8,3-7.1,6.8-7.1,11.3c0,4.1,1.9,7.5,5.6,10.1c4.9,3.4,13.3,5.2,25.1,5.2c5.6,0,12.7-0.5,21.3-1.5L145.1,140.9z M165.9,104.3   c-10.4-5.2-18.5-8.6-24.3-10.4c-5.8-1.7-10.9-2.6-15.4-2.6c-6.2,0-11.3,1.8-15.2,5.3c-3.9,3.5-5.8,7.6-5.8,12.3   c0,4.6,1.7,8.4,5,11.4c3.3,3,8.4,4.5,15.1,4.5c4.4,0,14.4-0.7,30-2L165.9,104.3z M123.1,188.6c6.2,1.4,11.3,2.6,15.3,3.8   c3.9,1.2,11,3.5,21,7c16-7.3,24-14.4,24-21.2c0-2.1-0.9-4-2.8-5.8c-1.9-1.7-4.3-2.6-7.1-2.6c-3.5,0-7.9,0.3-13.1,0.9   c-14.4,1.5-23.9,2.3-28.4,2.3L123.1,188.6z M142.5,154.4c15.8-1.6,26.8-2.3,32.9-2.3c8.4,0,14.8,1.9,19.3,5.7   c4.4,3.8,6.7,8.4,6.7,13.7c0,4.6-2.2,9.1-6.5,13.5c-4.3,4.4-13.6,9.8-27.9,16.4l20.2,5.3c8.7-5.4,15.4-11.2,20.1-17.4   c4.7-6.2,7.1-13.1,7.1-20.6c0-4.9-1.5-9.7-4.4-14.5c-3-4.7-7.5-8.5-13.6-11.3c-6.1-2.8-13.1-4.2-21.1-4.2c-6.4,0-14.7,0.6-24.7,1.8   L142.5,154.4z"/>
</g>
</svg>