<?xml version="1.0" encoding="utf-8"?>
<!-- Generator: Adobe Illustrator 19.0.0, SVG Export Plug-In . SVG Version: 6.00 Build 0)  -->
<svg version="1.1" id="Calque_1" xmlns="http://www.w3.org/2000/svg" xmlns:xlink="http://www.w3.org/1999/xlink" x="0px" y="0px"
	 viewBox="0 0 176.1 175.9" style="enable-background:new 0 0 176.1 175.9;" xml:space="preserve">
<style type="text/css">
	.st0{fill-rule:evenodd;clip-rule:evenodd;fill:#CECECE;}
	.st1{fill:#CECECE;}
</style>
<g id="XMLID_376_">
	<g id="XMLID_214_">
		<g id="XMLID_240_">
			<path id="XMLID_243_" class="st0" d="M33.8,157.3l5.4-6.8c-0.3,0.3-9.9-8.8-9.7-9l-6.4,5.9C22.9,147.5,33.5,157.6,33.8,157.3z"/>
			<path id="XMLID_242_" class="st0" d="M56.6,170.2l3.1-8.1c-0.1,0.3-12-5.5-11.9-5.8l-4.4,7.5C43.3,164.2,56.4,170.6,56.6,170.2z"
				/>
			<path id="XMLID_241_" class="st0" d="M82.1,175.9l0.6-8.7c0,0.4-13.1-1.6-13-2l-2,8.5C67.5,174.1,82.1,176.3,82.1,175.9z"/>
		</g>
		<path id="XMLID_239_" class="st0" d="M0,88.8l8.7-0.1c0,0-0.1-0.8,0-2.1c0.1-1.2,0.1-2.9,0.2-4.5c0-1.7,0.3-3.3,0.5-4.5
			c0.2-1.2,0.3-2,0.3-2l-8.6-1.4c0,0-0.1,0.9-0.3,2.3c-0.2,1.4-0.5,3.2-0.5,5c-0.1,1.8-0.2,3.7-0.3,5C0,87.9,0,88.8,0,88.8z"/>
		<path id="XMLID_238_" class="st0" d="M4.1,114.7l8.3-2.6c0,0-0.3-0.8-0.6-2c-0.3-1.2-0.7-2.8-1.1-4.4c-0.5-1.6-0.7-3.2-0.9-4.5
			c-0.2-1.2-0.3-2-0.3-2L1,100.4c0,0,0.1,0.9,0.3,2.3c0.2,1.4,0.4,3.2,1,4.9c0.5,1.8,0.9,3.6,1.3,4.9C3.8,113.8,4.1,114.7,4.1,114.7
			z"/>
		<path id="XMLID_237_" class="st0" d="M15.7,138.1l7.1-5c0,0-0.5-0.6-1.2-1.7c-0.6-1.1-1.5-2.5-2.4-3.9c-0.9-1.4-1.6-2.9-2.1-4
			c-0.5-1.1-0.9-1.9-0.9-1.9l-7.9,3.7c0,0,0.4,0.8,1,2.1c0.6,1.2,1.4,2.9,2.4,4.4c1,1.6,1.9,3.1,2.6,4.3
			C15.1,137.4,15.7,138.1,15.7,138.1z"/>
		<g id="XMLID_233_">
			<path id="XMLID_236_" class="st0" d="M32.6,19.8l5.5,6.7c0,0,2.6-2,5.3-4c2.8-1.7,5.6-3.5,5.6-3.5l-4.3-7.6c0,0-3.1,1.9-6.2,3.9
				C35.6,17.6,32.6,19.8,32.6,19.8z"/>
			<path id="XMLID_235_" class="st0" d="M15,39.1l7.2,4.9c0,0,2-2.6,3.9-5.3c0.9-1.4,2.2-2.5,3-3.4c0.8-0.9,1.4-1.5,1.4-1.5l-6.3-6
				c0,0-0.6,0.7-1.5,1.7c-0.9,1.1-2.3,2.3-3.3,3.8C17.1,36.2,15,39.1,15,39.1z"/>
			<path id="XMLID_234_" class="st0" d="M3.8,62.7l8.3,2.5c0,0,0.2-0.8,0.6-2c0.4-1.2,1-2.7,1.6-4.3c0.5-1.6,1.3-3,1.8-4.2
				C16.7,53.7,17,53,17,53l-7.8-3.9c0,0-0.4,0.8-1,2.1c-0.6,1.2-1.4,2.9-2,4.6c-0.6,1.7-1.3,3.4-1.7,4.7C4,61.8,3.8,62.7,3.8,62.7z"
				/>
		</g>
		<g id="XMLID_229_">
			<path id="XMLID_232_" class="st0" d="M106.9,2.1l-1.9,8.5c0,0,3.2,0.8,6.4,1.7c3.1,1.1,6.2,2.3,6.2,2.3l3.3-8.1
				c0,0-3.4-1.3-6.9-2.5C110.5,3,106.9,2.1,106.9,2.1z"/>
			<path id="XMLID_231_" class="st0" d="M80.8,0.4L81.5,9c0,0,3.3-0.2,6.6-0.3C91.4,8.9,94.7,9,94.7,9l0.7-8.7c0,0-3.7-0.2-7.3-0.4
				C84.4,0.2,80.8,0.4,80.8,0.4z"/>
			<path id="XMLID_230_" class="st0" d="M55.4,6.4l3.3,8.1c0,0,3.1-1.1,6.2-2.3c3.2-0.8,6.4-1.7,6.4-1.7l-1.9-8.5
				c0,0-3.6,0.9-7.1,1.8C58.8,5.1,55.4,6.4,55.4,6.4z"/>
		</g>
		<g id="XMLID_225_">
			<path id="XMLID_228_" class="st0" d="M167,49.3l-7.8,3.9c0,0,0.4,0.7,0.9,1.9c0.6,1.1,1.3,2.6,1.8,4.2c0.6,1.5,1.1,3.1,1.6,4.3
				c0.5,1.1,0.6,2,0.6,2l8.3-2.5c0,0-0.2-0.9-0.7-2.2c-0.5-1.3-1.1-3-1.7-4.7c-0.6-1.7-1.4-3.4-2-4.6C167.4,50.1,167,49.3,167,49.3z
				"/>
			<path id="XMLID_227_" class="st0" d="M152,27.8l-6.3,6c0,0,0.6,0.6,1.4,1.5c0.8,0.9,2,2.1,3,3.4c2,2.7,3.9,5.3,3.9,5.3l7.2-4.9
				c0,0-2.2-2.9-4.4-5.9c-1-1.5-2.4-2.8-3.3-3.8C152.6,28.4,152,27.8,152,27.8z"/>
			<path id="XMLID_226_" class="st0" d="M131.5,11.6l-4.3,7.5c0,0,2.9,1.7,5.6,3.5c2.6,2,5.3,4,5.3,4l5.5-6.7c0,0-2.9-2.2-5.9-4.4
				C134.7,13.5,131.5,11.6,131.5,11.6z"/>
		</g>
		<g id="XMLID_221_">
			<path id="XMLID_224_" class="st0" d="M167.6,125.6l-7.9-3.7c0,0-0.4,0.7-0.9,1.9c-0.5,1.1-1.2,2.6-2.2,4
				c-0.9,1.4-1.7,2.8-2.4,3.9c-0.6,1.1-1.2,1.7-1.2,1.7l7.1,5c0,0,0.6-0.7,1.3-1.9c0.7-1.2,1.7-2.7,2.6-4.3c1-1.5,1.8-3.2,2.4-4.4
				C167.2,126.4,167.6,125.6,167.6,125.6z"/>
			<path id="XMLID_223_" class="st0" d="M175.2,100.5l-8.6-1.2c0,0-0.1,0.8-0.3,2c-0.2,1.2-0.4,2.9-0.9,4.5
				c-0.4,1.6-0.8,3.2-1.1,4.4c-0.3,1.2-0.6,2-0.6,2l8.3,2.7c0,0,0.3-0.9,0.6-2.2c0.3-1.3,0.8-3.1,1.3-4.9c0.5-1.8,0.7-3.6,1-4.9
				C175,101.4,175.2,100.5,175.2,100.5z"/>
			<path id="XMLID_222_" class="st0" d="M175,74.4l-8.6,1.4c0,0,0.1,0.8,0.3,2c0.2,1.2,0.4,2.9,0.5,4.5c0.1,1.6,0.2,3.3,0.2,4.5
				c0.1,1.2,0,2.1,0,2.1l8.7,0.1c0,0,0.1-0.9,0-2.3c-0.1-1.4-0.2-3.2-0.3-5c0-1.8-0.3-3.7-0.5-5C175.1,75.3,175,74.4,175,74.4z"/>
		</g>
		<g id="XMLID_217_">
			<path id="XMLID_220_" class="st0" d="M108.4,173.7l-2-8.5c0.1,0.4-13,2.3-13,2l0.6,8.7C93.9,176.2,108.5,174.1,108.4,173.7z"/>
			<path id="XMLID_219_" class="st0" d="M132.6,163.9l-4.4-7.5c0.2,0.3-11.7,6.1-11.9,5.7l3.1,8.1
				C119.6,170.6,132.8,164.2,132.6,163.9z"/>
			<path id="XMLID_218_" class="st0" d="M152.9,147.4l-6.4-5.9c0.2,0.2-9.4,9.3-9.7,9l5.4,6.8C142.5,157.7,153.1,147.6,152.9,147.4z
				"/>
		</g>
		<path id="XMLID_216_" class="st1" d="M91.1,139.3h-6c-0.1,0-0.1-0.1-0.1-0.1V37c0-0.1,0.1-0.1,0.1-0.1h6c0.1,0,0.1,0.1,0.1,0.1
			v102.1C91.2,139.2,91.2,139.3,91.1,139.3z"/>
		<path id="XMLID_215_" class="st1" d="M139.3,85.1v6c0,0.1-0.1,0.1-0.1,0.1L37,91.2c-0.1,0-0.1-0.1-0.1-0.1v-6
			c0-0.1,0.1-0.1,0.1-0.1h102.1C139.2,84.9,139.3,85,139.3,85.1z"/>
	</g>
</g>
</svg>
