<?xml version="1.0" encoding="utf-8"?>
<!-- Generator: Adobe Illustrator 19.0.0, SVG Export Plug-In . SVG Version: 6.00 Build 0)  -->
<svg version="1.1" id="Calque_1" xmlns="http://www.w3.org/2000/svg" xmlns:xlink="http://www.w3.org/1999/xlink" x="0px" y="0px"
	 viewBox="0 0 60.4 54.8" style="enable-background:new 0 0 60.4 54.8;" xml:space="preserve">
<style type="text/css">
	.st0{fill:#010202;}
</style>
<g id="XMLID_297_">
	<path id="XMLID_311_" class="st0" d="M0,50.7c2.4-1.1,4.3-2.5,5.6-4.3c1.4-1.8,2-3.8,2-6.1c-0.2,0.1-0.5,0.1-0.9,0.1
		c-1.4,0-2.5-0.4-3.5-1.2c-1-0.8-1.5-2-1.5-3.6c0-1.5,0.5-2.7,1.5-3.6c1-0.9,2.2-1.3,3.7-1.3c1.8,0,3.2,0.7,4.3,2.2
		c1,1.5,1.6,3.5,1.6,6c0,3.7-1,6.9-3,9.6c-2,2.7-4.7,4.8-8.2,6.3L0,50.7z M6.6,10.7C5.2,10.7,4,10.2,3,9.2C2,8.2,1.5,7,1.5,5.4
		c0-1.6,0.5-3,1.5-4C4,0.5,5.2,0,6.6,0C8,0,9.2,0.5,10.2,1.5c1,1,1.5,2.3,1.5,4c0,1.5-0.5,2.8-1.5,3.8C9.2,10.2,8,10.7,6.6,10.7z"/>
	<path id="XMLID_314_" class="st0" d="M20.7,16.4h19.6v5.4H20.7V16.4z"/>
	<path id="XMLID_316_" class="st0" d="M47.6,50.7c2.4-1.1,4.3-2.5,5.6-4.3c1.4-1.8,2-3.8,2-6.1c-0.2,0.1-0.5,0.1-0.9,0.1
		c-1.4,0-2.5-0.4-3.5-1.2c-1-0.8-1.5-2-1.5-3.6c0-1.5,0.5-2.7,1.5-3.6c1-0.9,2.2-1.3,3.7-1.3c1.8,0,3.2,0.7,4.3,2.2
		c1,1.5,1.6,3.5,1.6,6c0,3.7-1,6.9-3,9.6c-2,2.7-4.7,4.8-8.2,6.3L47.6,50.7z M54.2,10.7c-1.4,0-2.6-0.5-3.6-1.5
		c-1-1-1.5-2.3-1.5-3.8c0-1.6,0.5-3,1.5-4c1-1,2.2-1.5,3.6-1.5c1.4,0,2.5,0.5,3.5,1.5c1,1,1.5,2.3,1.5,4c0,1.5-0.5,2.8-1.5,3.8
		C56.8,10.2,55.6,10.7,54.2,10.7z"/>
</g>
</svg>
