<svg width="28" height="28" viewBox="0 0 28 28" fill="none" xmlns="http://www.w3.org/2000/svg">
<rect width="28" height="28" rx="8" fill="#0061FF"/>
<path d="M15.6007 15.6007H12.3993H10.8004C9.91707 15.6007 9.20149 14.8851 9.20149 14.0018V12.403C7.43117 12.3992 6 13.8304 6 15.6007C6 17.371 7.43117 18.8022 9.20149 18.8022H12.403H14.0019C14.8852 18.8022 15.6007 19.5178 15.6007 20.4011V22C17.3673 22 18.8022 20.5688 18.8022 18.7985C18.8022 17.0282 17.3673 15.6007 15.6007 15.6007Z" fill="white"/>
<path d="M18.7985 9.20149H15.597H13.9982C13.1149 9.20149 12.3993 8.48591 12.3993 7.60261V6C10.6327 6 9.19778 7.43117 9.19778 9.20149C9.19778 10.9718 10.629 12.403 12.3993 12.403H15.6008H17.1996C18.0829 12.403 18.7985 13.1186 18.7985 14.0019V15.6007C20.5651 15.6007 22 14.1696 22 12.3993C22 10.6289 20.5651 9.20149 18.7985 9.20149Z" fill="white"/>
</svg>
